<svg width="20" height="18" viewBox="0 0 20 18" fill="none" xmlns="http://www.w3.org/2000/svg">
<path d="M10 16.5L9.91664 16.3749C9.33777 15.5066 9.04834 15.0725 8.66594 14.7582C8.3274 14.4799 7.93732 14.2712 7.51802 14.1438C7.0444 14 6.52261 14 5.47904 14H4.33335C3.39993 14 2.93322 14 2.5767 13.8183C2.2631 13.6586 2.00813 13.4036 1.84834 13.09C1.66669 12.7335 1.66669 12.2668 1.66669 11.3333V4.16667C1.66669 3.23325 1.66669 2.76654 1.84834 2.41002C2.00813 2.09641 2.2631 1.84144 2.5767 1.68166C2.93322 1.5 3.39993 1.5 4.33335 1.5H4.66669C6.53353 1.5 7.46695 1.5 8.17999 1.86331C8.8072 2.18289 9.31713 2.69282 9.63671 3.32003C10 4.03307 10 4.96649 10 6.83333M10 16.5V6.83333M10 16.5L10.0834 16.3749C10.6623 15.5066 10.9517 15.0725 11.3341 14.7582C11.6726 14.4799 12.0627 14.2712 12.482 14.1438C12.9556 14 13.4774 14 14.521 14H15.6667C16.6001 14 17.0668 14 17.4233 13.8183C17.7369 13.6586 17.9919 13.4036 18.1517 13.09C18.3334 12.7335 18.3334 12.2668 18.3334 11.3333V4.16667C18.3334 3.23325 18.3334 2.76654 18.1517 2.41002C17.9919 2.09641 17.7369 1.84144 17.4233 1.68166C17.0668 1.5 16.6001 1.5 15.6667 1.5H15.3334C13.4665 1.5 12.5331 1.5 11.8201 1.86331C11.1928 2.18289 10.6829 2.69282 10.3633 3.32003C10 4.03307 10 4.96649 10 6.83333" stroke="#212121" stroke-width="1.5" stroke-linecap="round" stroke-linejoin="round"/>
</svg>
