<svg width="18" height="18" viewBox="0 0 18 18" fill="none" xmlns="http://www.w3.org/2000/svg">
<path fill-rule="evenodd" clip-rule="evenodd" d="M5.28714 2.28781C6.2717 1.30325 7.60706 0.750122 8.99945 0.750122C10.3918 0.750122 11.7272 1.30325 12.7118 2.28781C13.6963 3.27238 14.2494 4.60774 14.2494 6.00012C14.2494 8.51462 14.7872 10.0761 15.2829 10.9847C15.5317 11.441 15.774 11.7402 15.9424 11.9179C16.0267 12.007 16.093 12.066 16.1329 12.0992C16.1529 12.1159 16.1663 12.1261 16.172 12.1304C16.1729 12.1311 16.1737 12.1316 16.1742 12.132C16.443 12.3167 16.562 12.6545 16.4673 12.9675C16.3715 13.2838 16.0799 13.5001 15.7494 13.5001H2.24945C1.91895 13.5001 1.6274 13.2838 1.53163 12.9675C1.43687 12.6545 1.55585 12.3167 1.82472 12.132C1.82524 12.1316 1.82596 12.1311 1.82686 12.1304C1.83263 12.1261 1.84602 12.1159 1.86599 12.0992C1.9059 12.066 1.97219 12.007 2.05655 11.9179C2.22487 11.7402 2.46718 11.441 2.71603 10.9847C3.21165 10.0761 3.74945 8.51462 3.74945 6.00012C3.74945 4.60774 4.30257 3.27238 5.28714 2.28781ZM1.8323 12.1268C1.83236 12.1268 1.83241 12.1268 1.83247 12.1267C1.83247 12.1267 1.83247 12.1267 1.83246 12.1267L1.8323 12.1268ZM3.86144 12.0001H14.1375C14.0804 11.9066 14.0231 11.8076 13.966 11.703C13.3366 10.5492 12.7494 8.73563 12.7494 6.00012C12.7494 5.00556 12.3544 4.05173 11.6511 3.34847C10.9478 2.64521 9.99401 2.25012 8.99945 2.25012C8.00489 2.25012 7.05106 2.64521 6.3478 3.34847C5.64454 4.05173 5.24945 5.00556 5.24945 6.00012C5.24945 8.73563 4.66225 10.5492 4.03287 11.703C3.9758 11.8076 3.91851 11.9066 3.86144 12.0001Z" fill="#212121"/>
<path fill-rule="evenodd" clip-rule="evenodd" d="M7.32594 15.1013C7.68424 14.8934 8.14318 15.0154 8.35102 15.3737C8.41695 15.4873 8.51158 15.5817 8.62544 15.6472C8.73929 15.7128 8.86838 15.7473 8.99977 15.7473C9.13116 15.7473 9.26025 15.7128 9.37411 15.6472C9.48796 15.5817 9.58259 15.4873 9.64852 15.3737C9.85636 15.0154 10.3153 14.8934 10.6736 15.1013C11.0319 15.3091 11.1539 15.768 10.946 16.1263C10.7482 16.4673 10.4643 16.7503 10.1228 16.9471C9.78121 17.1438 9.39395 17.2473 8.99977 17.2473C8.6056 17.2473 8.21834 17.1438 7.87677 16.9471C7.5352 16.7503 7.25131 16.4673 7.05352 16.1263C6.84568 15.768 6.96765 15.3091 7.32594 15.1013Z" fill="#212121"/>
</svg>
