<svg width="22" height="22" viewBox="0 0 22 22" fill="none" xmlns="http://www.w3.org/2000/svg">
<path d="M2.29124 8.25H19.7079M9.16624 2.75L7.33291 8.25L10.9996 18.7917L14.6662 8.25L12.8329 2.75M11.5629 18.574L19.775 8.71947C19.9142 8.55246 19.9838 8.46895 20.0104 8.37573C20.0338 8.29355 20.0338 8.20645 20.0104 8.12426C19.9838 8.03105 19.9142 7.94754 19.775 7.78053L15.8028 3.01386C15.722 2.91687 15.6816 2.86838 15.632 2.83351C15.5881 2.80262 15.5391 2.77968 15.4873 2.76574C15.4288 2.75 15.3657 2.75 15.2394 2.75H6.75972C6.63346 2.75 6.57034 2.75 6.51184 2.76574C6.46001 2.77968 6.41103 2.80262 6.36713 2.83351C6.31759 2.86838 6.27718 2.91687 6.19635 3.01387L2.22413 7.78053C2.08496 7.94754 2.01537 8.03105 1.98878 8.12426C1.96533 8.20645 1.96533 8.29355 1.98878 8.37573C2.01537 8.46895 2.08496 8.55245 2.22413 8.71947L10.4362 18.574C10.6297 18.8061 10.7264 18.9222 10.8422 18.9645C10.9438 19.0017 11.0553 19.0017 11.1569 18.9645C11.2727 18.9222 11.3695 18.8061 11.5629 18.574Z" stroke="#212121" stroke-width="1.5" stroke-linecap="round" stroke-linejoin="round"/>
</svg>
