<svg width="54" height="54" viewBox="0 0 54 54" fill="none" xmlns="http://www.w3.org/2000/svg">
<rect x="0.5" y="0.5" width="53" height="53" rx="9.5" stroke="#E8E8E8"/>
<path fill-rule="evenodd" clip-rule="evenodd" d="M39.4034 21.8803C39.5841 21.3729 39.4034 21 38.5432 21H35.6988C34.9756 21 34.6421 21.3221 34.4613 21.6773C34.4613 21.6773 33.0148 24.6456 30.9657 26.5738C30.3027 27.1319 30.0014 27.3095 29.6397 27.3095C29.459 27.3095 29.1972 27.1319 29.1972 26.6245V21.8803C29.1972 21.2714 28.9873 21 28.3846 21H23.9148C23.4628 21 23.191 21.2826 23.191 21.5504C23.191 22.1277 24.2155 22.2608 24.3212 23.8845V27.411C24.3212 28.1842 24.1553 28.3244 23.7937 28.3244C22.8294 28.3244 20.4838 25.3428 19.0927 21.931C18.82 21.2679 18.5466 21 17.8196 21H14.9752C14.1625 21 14 21.3221 14 21.6773C14 22.3115 14.9643 25.4575 18.49 29.6183C20.8405 32.4597 24.1521 34 27.1656 34C28.9736 34 29.1973 33.6579 29.1973 33.0686V30.9211C29.1973 30.2368 29.3686 30.1003 29.9411 30.1003C30.363 30.1003 31.0862 30.2779 32.7738 31.6479C34.7024 33.2716 35.0203 34 36.1051 34H38.9496C39.7622 34 40.1686 33.6579 39.9342 32.9828C39.6777 32.3099 38.7569 31.3337 37.535 30.1764C36.872 29.5168 35.8776 28.8064 35.5763 28.4512C35.1544 27.9946 35.2749 27.7915 35.5763 27.3857C35.5763 27.3857 39.0418 23.2756 39.4034 21.8803Z" fill="#AFAFAF"/>
</svg>
