<svg width="54" height="54" viewBox="0 0 54 54" fill="none" xmlns="http://www.w3.org/2000/svg">
<rect x="0.5" y="0.5" width="53" height="53" rx="9.5" stroke="#E8E8E8"/>
<path d="M17.212 36H20.818V27.2447L15.6665 23.382V34.4549C15.6665 35.3099 16.3594 36 17.212 36Z" fill="#AFAFAF"/>
<path d="M33.1816 36H36.7877C37.6429 36 38.3332 35.3073 38.3332 34.4549V23.382L33.1816 27.2447" fill="#AFAFAF"/>
<path d="M33.1816 20.5494V27.2447L38.3332 23.382V21.322C38.3332 19.4112 36.1515 18.322 34.6241 19.4679" fill="#AFAFAF"/>
<path d="M20.8179 27.2447V20.5495L26.9997 25.1847L33.1815 20.5495V27.2447L26.9997 31.8799" fill="#AFAFAF"/>
<path d="M15.6665 21.322V23.382L20.818 27.2447V20.5494L19.3756 19.4679C17.8456 18.322 15.6665 19.4112 15.6665 21.322Z" fill="#AFAFAF"/>
</svg>
