<svg width="12" height="12" viewBox="0 0 12 12" fill="none" xmlns="http://www.w3.org/2000/svg">
<path d="M2.76959 2.76446C2.76959 2.31623 2.76959 2.09212 2.86305 1.96858C2.94447 1.86095 3.06891 1.79435 3.20362 1.78631C3.35825 1.77707 3.54473 1.90139 3.91768 2.15002L8.77101 5.38558C9.07918 5.59102 9.23326 5.69374 9.28695 5.82322C9.33389 5.93641 9.33389 6.06363 9.28695 6.17682C9.23326 6.30629 9.07918 6.40901 8.77101 6.61445L3.91768 9.85001C3.54473 10.0986 3.35825 10.223 3.20362 10.2137C3.06891 10.2057 2.94447 10.1391 2.86305 10.0315C2.76959 9.90792 2.76959 9.6838 2.76959 9.23558V2.76446Z" fill="#212121"/>
</svg>
