<svg width="22" height="22" viewBox="0 0 22 22" fill="none" xmlns="http://www.w3.org/2000/svg">
<path d="M8.6122 17.7569L9.14794 18.9618C9.30721 19.3204 9.56712 19.6252 9.89615 19.8391C10.2252 20.0529 10.6092 20.1667 11.0016 20.1667C11.3941 20.1667 11.7781 20.0529 12.1071 19.8391C12.4362 19.6252 12.6961 19.3204 12.8554 18.9618L13.3911 17.7569C13.5818 17.3293 13.9026 16.9729 14.3078 16.7383C14.7155 16.5032 15.1871 16.403 15.6553 16.4521L16.9661 16.5917C17.3563 16.6329 17.7501 16.5601 18.0997 16.3821C18.4494 16.204 18.7398 15.9283 18.9359 15.5884C19.1322 15.2488 19.2258 14.8594 19.2052 14.4676C19.1846 14.0759 19.0507 13.6985 18.8198 13.3813L18.0437 12.3149C17.7673 11.9324 17.6197 11.4719 17.622 11C17.6219 10.5294 17.771 10.0708 18.0478 9.69019L18.8239 8.6238C19.0548 8.30661 19.1886 7.92923 19.2092 7.53745C19.2298 7.14567 19.1363 6.75633 18.94 6.41667C18.7439 6.0768 18.4534 5.80112 18.1038 5.62304C17.7542 5.44497 17.3604 5.37215 16.9702 5.41343L15.6593 5.55296C15.1912 5.60213 14.7196 5.50195 14.3118 5.26676C13.9059 5.0309 13.585 4.67258 13.3952 4.24315L12.8554 3.03824C12.6961 2.67957 12.4362 2.37482 12.1071 2.16095C11.7781 1.94708 11.3941 1.83327 11.0016 1.83333C10.6092 1.83327 10.2252 1.94708 9.89615 2.16095C9.56712 2.37482 9.30721 2.67957 9.14794 3.03824L8.6122 4.24315C8.42239 4.67258 8.1015 5.0309 7.69554 5.26676C7.28782 5.50195 6.81615 5.60213 6.34804 5.55296L5.03313 5.41343C4.64293 5.37215 4.24914 5.44497 3.8995 5.62304C3.54986 5.80112 3.25939 6.0768 3.06331 6.41667C2.86698 6.75633 2.77345 7.14567 2.79406 7.53745C2.81467 7.92923 2.94854 8.30661 3.17943 8.6238L3.95554 9.69019C4.23232 10.0708 4.38136 10.5294 4.38128 11C4.38136 11.4706 4.23232 11.9292 3.95554 12.3098L3.17943 13.3762C2.94854 13.6934 2.81467 14.0708 2.79406 14.4626C2.77345 14.8543 2.86698 15.2437 3.06331 15.5833C3.25959 15.923 3.55009 16.1986 3.89968 16.3766C4.24927 16.5547 4.64296 16.6276 5.03313 16.5866L6.34396 16.447C6.81208 16.3979 7.28374 16.4981 7.69146 16.7332C8.09895 16.9684 8.42132 17.3268 8.6122 17.7569Z" stroke="#212121" stroke-width="1.5" stroke-linecap="round" stroke-linejoin="round"/>
<path d="M11 13.75C12.5188 13.75 13.75 12.5188 13.75 11C13.75 9.48122 12.5188 8.25 11 8.25C9.48123 8.25 8.25001 9.48122 8.25001 11C8.25001 12.5188 9.48123 13.75 11 13.75Z" stroke="#212121" stroke-width="1.5" stroke-linecap="round" stroke-linejoin="round"/>
</svg>
