<svg width="22" height="22" viewBox="0 0 22 22" fill="none" xmlns="http://www.w3.org/2000/svg">
<path d="M18.7916 6.67125L11 10.9999M11 10.9999L3.2083 6.67125M11 10.9999L11 19.7083M19.25 14.7203V7.27963C19.25 6.96554 19.25 6.8085 19.2037 6.66843C19.1628 6.54452 19.0959 6.43078 19.0074 6.33482C18.9075 6.22634 18.7702 6.15007 18.4956 5.99754L11.7123 2.22902C11.4523 2.08459 11.3223 2.01238 11.1847 1.98406C11.0628 1.95901 10.9372 1.95901 10.8153 1.98406C10.6777 2.01238 10.5477 2.08459 10.2877 2.22902L3.50439 5.99754C3.22983 6.15007 3.09254 6.22634 2.99258 6.33482C2.90414 6.43078 2.83722 6.54452 2.79628 6.66844C2.75 6.8085 2.75 6.96555 2.75 7.27964V14.7203C2.75 15.0344 2.75 15.1915 2.79628 15.3315C2.83722 15.4554 2.90414 15.5692 2.99258 15.6651C3.09255 15.7736 3.22983 15.8499 3.50439 16.0024L10.2877 19.7709C10.5477 19.9154 10.6777 19.9876 10.8153 20.0159C10.9372 20.0409 11.0628 20.0409 11.1847 20.0159C11.3223 19.9876 11.4523 19.9154 11.7123 19.7709L18.4956 16.0024C18.7702 15.8499 18.9075 15.7736 19.0074 15.6651C19.0959 15.5692 19.1628 15.4554 19.2037 15.3315C19.25 15.1915 19.25 15.0344 19.25 14.7203Z" stroke="#162A2D" stroke-width="1.5" stroke-linecap="round" stroke-linejoin="round"/>
</svg>
