<svg width="22" height="22" viewBox="0 0 22 22" fill="none" xmlns="http://www.w3.org/2000/svg">
<path d="M19.25 4.58334C19.25 6.10213 15.5563 7.33334 11 7.33334C6.44365 7.33334 2.75 6.10213 2.75 4.58334M19.25 4.58334C19.25 3.06456 15.5563 1.83334 11 1.83334C6.44365 1.83334 2.75 3.06456 2.75 4.58334M19.25 4.58334V17.4167C19.25 18.9383 15.5833 20.1667 11 20.1667C6.41667 20.1667 2.75 18.9383 2.75 17.4167V4.58334M19.25 11C19.25 12.5217 15.5833 13.75 11 13.75C6.41667 13.75 2.75 12.5217 2.75 11" stroke="#212121" stroke-width="1.5" stroke-linecap="round" stroke-linejoin="round"/>
</svg>
