<svg width="22" height="22" viewBox="0 0 22 22" fill="none" xmlns="http://www.w3.org/2000/svg">
<path d="M19.25 11C19.25 15.5563 15.5563 19.25 11 19.25C9.90262 19.25 8.85528 19.0357 7.89753 18.6468C7.71423 18.5723 7.62258 18.5351 7.54849 18.5185C7.47602 18.5023 7.42239 18.4963 7.34812 18.4963C7.2722 18.4963 7.1895 18.5101 7.0241 18.5377L3.7627 19.0812C3.42117 19.1381 3.2504 19.1666 3.12692 19.1136C3.01884 19.0673 2.93272 18.9812 2.88636 18.8731C2.8334 18.7496 2.86186 18.5788 2.91878 18.2373L3.46235 14.9759C3.48992 14.8105 3.5037 14.7278 3.50369 14.6519C3.50368 14.5776 3.49774 14.524 3.4815 14.4515C3.46489 14.3774 3.42767 14.2858 3.35322 14.1025C2.96426 13.1447 2.75 12.0974 2.75 11C2.75 6.44365 6.44365 2.75 11 2.75C15.5563 2.75 19.25 6.44365 19.25 11Z" stroke="#212121" stroke-width="1.5" stroke-linecap="round" stroke-linejoin="round"/>
</svg>
