<svg width="185" height="38" viewBox="0 0 185 38" fill="none" xmlns="http://www.w3.org/2000/svg">
<g opacity="0.1">
<path fill-rule="evenodd" clip-rule="evenodd" d="M62.4846 42L96 42V54L62.4853 54L86.1835 77.6982L77.6982 86.1835L54 62.4853V96H42V62.4846L18.3012 86.1834L9.81595 77.6981L33.5141 54H0L5.24537e-07 42H33.5147L9.81595 18.3012L18.3012 9.81595L42 33.5147L42 0L54 5.24537e-07V33.5141L77.6982 9.81587L86.1835 18.3012L62.4846 42Z" fill="white"/>
<path fill-rule="evenodd" clip-rule="evenodd" d="M151.485 42L185 42V54L151.485 54L175.183 77.6982L166.698 86.1835L143 62.4853V96H131V62.4846L107.301 86.1834L98.8159 77.6981L122.514 54H89V42H122.515L98.8159 18.3012L107.301 9.81595L131 33.5147V0L143 5.24537e-07V33.5141L166.698 9.81587L175.183 18.3012L151.485 42Z" fill="white"/>
</g>
</svg>
