<svg width="54" height="54" viewBox="0 0 54 54" fill="none" xmlns="http://www.w3.org/2000/svg">
<rect x="0.5" y="0.5" width="53" height="53" rx="9.5" stroke="#E8E8E8"/>
<path d="M16.4714 25.839C16.4714 25.839 27.086 21.8877 30.7673 20.4963C32.1786 19.9398 36.9643 18.1589 36.9643 18.1589C36.9643 18.1589 39.1732 17.3798 38.9891 19.272C38.9277 20.0511 38.4369 22.7781 37.9461 25.7277C37.2097 29.9018 36.4121 34.4653 36.4121 34.4653C36.4121 34.4653 36.2894 35.7453 35.2464 35.9679C34.2033 36.1905 32.4853 35.1888 32.1786 34.9662C31.9331 34.7993 27.5768 32.2948 25.9816 31.0704C25.5521 30.7365 25.0613 30.0687 26.0429 29.2896C28.2518 27.453 30.8901 25.1712 32.4853 23.7243C33.2216 23.0564 33.9579 21.4981 30.8901 23.3903C26.5338 26.1173 22.2389 28.6774 22.2389 28.6774C22.2389 28.6774 21.2572 29.2339 19.4165 28.733C17.5757 28.2322 15.4283 27.5643 15.4283 27.5643C15.4283 27.5643 13.9558 26.7295 16.4714 25.839Z" fill="#AFAFAF"/>
</svg>
